<svg xmlns="http://www.w3.org/2000/svg" width="101" height="24" viewBox="0 0 101 24"><defs><style>.a{fill:#f84b00;}.b,.d{fill:#fff;}.b{font-size:11px;font-family:HurmeGeometricSans4-Bold, "Hurme Geometric Sans 4";font-weight:700;}.c{fill:rgba(0,0,0,0);}</style></defs><rect class="a" width="101" height="24" rx="12"/><text class="b" transform="translate(41.5 16)"><tspan x="-21.395" y="0">FILTRAR</tspan></text><g transform="translate(76 6)"><rect class="c" width="13" height="12"/><g transform="translate(0)"><path class="d" d="M5.066,11.7a.385.385,0,0,1-.386-.385V6.189L.088.629A.384.384,0,0,1,.385,0H12.332a.384.384,0,0,1,.3.629L8.037,6.189l-.005,3.85a.382.382,0,0,1-.214.345L5.237,11.66A.391.391,0,0,1,5.066,11.7ZM1.2.769,5.363,5.806a.386.386,0,0,1,.088.245v4.644l1.809-.9,0-3.75a.387.387,0,0,1,.088-.244L11.514.769Z"/></g></g></svg>