<svg xmlns="http://www.w3.org/2000/svg" width="101" height="24" viewBox="0 0 101 24"><defs><style>.a{fill:#f3f3f3;}.b{fill:rgba(0,0,0,0);}.c,.d{fill:#f84b00;}.d{font-size:11px;font-family:HurmeGeometricSans4-Bold, "Hurme Geometric Sans 4";font-weight:700;}</style></defs><g transform="translate(0 -1)"><g transform="translate(0 1)"><rect class="a" width="101" height="24" rx="12"/><g transform="translate(72)"><rect class="b" width="24" height="24"/><g transform="translate(6 6.004)"><path class="c" d="M2.914,11.276V1.02l1.8,1.8A.3.3,0,0,0,5.143,2.4L2.829.084a.308.308,0,0,0-.424,0L.088,2.4a.3.3,0,0,0,.424.424l1.8-1.8V11.276a.3.3,0,1,0,.6,0Z" transform="translate(0 0.006)"/><path class="c" d="M2.4,11.493a.3.3,0,0,0,.426,0L5.14,9.179a.3.3,0,0,0-.424-.424l-1.8,1.8V.3a.3.3,0,1,0-.6,0V10.558l-1.8-1.8a.3.3,0,0,0-.424.424Z" transform="translate(6.754)"/></g></g><text class="d" transform="translate(41.5 16)"><tspan x="-27.28" y="0">ORDENAR</tspan></text></g></g></svg>