<svg xmlns="http://www.w3.org/2000/svg" width="40" height="40" viewBox="0 0 40 40"><defs><style>.a{fill:#fff;}.b{fill:#f84b00;}</style></defs><circle class="a" cx="20" cy="20" r="20"/><g transform="translate(10 13)"><path class="b" d="M18.966,0H.8a.8.8,0,0,0,0,1.6H18.966a.8.8,0,0,0,0-1.6Z"/><path class="b" d="M18.966,0H.8a.8.8,0,0,0,0,1.6H18.966a.8.8,0,0,0,0-1.6Z" transform="translate(0 12.129)"/><path class="b" d="M11.854,0H.5C.223,0,0,.369,0,.824s.223.824.5.824H11.854c.276,0,.5-.369.5-.824S12.13,0,11.854,0Z" transform="translate(7.412 5.765)"/></g></svg>